:version 1.10
:name ASF
:units
  mass 1
  length 1
  angle deg
:documentation
  ASF file generated by Kaydara
:root
  axis xyz
  order  tx ty tz rx ry rz
  position 0 0 0
  orientation 0 0 0
:bonedata
  begin
    id 1
    name SpineDummy
    direction 0.999998 -0.00179978 1.38929e-006
    length 3.60008
    axis 0 0 0 xyz
  end
  begin
    id 2
    name Spine
    direction 0.964365 0.262802 0.0305839
    length 8.13928
    axis 1.33928 -1.75354 15.2838 xyz
    dof rx ry rz
  end
  begin
    id 3
    name Spine1
    direction 0.811168 0.572065 0.12144
    length 7.14954
    axis 2.2224 -6.9761 35.2157 xyz
    dof rx ry rz
  end
  begin
    id 4
    name Neck
    direction 0 0 0
    length 0
    axis 2.2224 -6.9761 35.2157 xyz
    dof rx ry rz
  end
  begin
    id 5
    name HeadDummy
    direction 0.810939 0.572387 0.121455
    length 3.55534
    axis 2.2224 -6.9761 35.2157 xyz
  end
  begin
    id 6
    name Head
    direction 0.998226 -0.000232542 0.0595419
    length 7.35666
    axis -3.03688 -3.41352 -0.0133467 xyz
    dof rx ry rz
  end
  begin
    id 7
    name R_ClavicleDummy
    direction 0.531669 -0.194489 -0.824319
    length 2.49392
    axis 2.2224 -6.9761 35.2157 xyz
  end
  begin
    id 8
    name R_Clavicle
    direction -0.155119 0.0480802 -0.986725
    length 4.485
    axis -54.2764 80.6538 162.779 xyz
    dof rx ry rz
  end
  begin
    id 9
    name R_UpperArm
    direction -0.955567 0.200068 -0.216484
    length 10.1122
    axis -72.9943 12.5026 168.175 xyz
    dof rx ry rz
  end
  begin
    id 10
    name R_Forearm
    direction -0.61433 0.385743 0.688332
    length 9.39148
    axis -117.015 -43.4982 147.875 xyz
    dof rx ry rz
  end
  begin
    id 11
    name R_Hand
    direction -0.699429 0.0170333 0.714499
    length 3.66324
    axis -45.0303 -36.7097 175.478 xyz
    dof rx ry rz
  end
  begin
    id 12
    name L_ClavicleDummy
    direction 0.40287 -0.36502 0.839319
    length 2.49392
    axis 2.2224 -6.9761 35.2157 xyz
  end
  begin
    id 13
    name L_Clavicle
    direction -0.231271 -0.0726419 0.970174
    length 4.485
    axis 18.4357 -75.9711 -162.563 xyz
    dof rx ry rz
  end
  begin
    id 14
    name L_UpperArm
    direction -0.917494 0.144359 0.370629
    length 10.1122
    axis 56.0417 -21.7544 171.058 xyz
    dof rx ry rz
  end
  begin
    id 15
    name L_Forearm
    direction -0.496786 0.615074 -0.612281
    length 9.39148
    axis 89.8094 37.7546 128.927 xyz
    dof rx ry rz
  end
  begin
    id 16
    name L_Hand
    direction -0.409932 0.64962 -0.640274
    length 3.66324
    axis -0.424369 32.133 128.52 xyz
    dof rx ry rz
  end
  begin
    id 17
    name L_ThighDummy
    direction -1.84081e-006 1.87549e-006 1
    length 3.13049
    axis 0 0 0 xyz
  end
  begin
    id 18
    name L_Thigh
    direction -0.947739 0.307978 0.083308
    length 17.9961
    axis 173.219 -4.77873 161.998 xyz
    dof rx ry rz
  end
  begin
    id 19
    name L_Calf
    direction -0.728814 -0.684427 0.0197583
    length 13.3367
    axis 167.331 -1.13214 -136.799 xyz
    dof rx ry rz
  end
  begin
    id 20
    name L_Foot
    direction -0.9028 0.418719 0.0981191
    length 5.8674
    axis 163.436 11.5135 -155.37 xyz
    dof rx ry rz
  end
  begin
    id 21
    name L_Toe0
    direction -0.35341 0.886259 0.299411
    length 4.75286
    axis 169.316 -17.4222 111.74 xyz
    dof rx ry rz
  end
  begin
    id 22
    name R_ThighDummy
    direction 9.32778e-007 -8.82053e-007 -1
    length 3.13049
    axis 0 0 0 xyz
  end
  begin
    id 23
    name R_Thigh
    direction -0.925064 0.37528 -0.0585023
    length 17.9961
    axis -178.698 3.35385 157.919 xyz
    dof rx ry rz
  end
  begin
    id 24
    name R_Calf
    direction -0.68969 -0.718776 -0.0876886
    length 13.3367
    axis -160.504 5.03065 -133.817 xyz
    dof rx ry rz
  end
  begin
    id 25
    name R_Foot
    direction -0.857405 0.418858 -0.299022
    length 5.8674
    axis -161.328 4.38911 -154.413 xyz
    dof rx ry rz
  end
  begin
    id 26
    name R_Toe0
    direction -0.100745 0.952789 -0.286433
    length 4.75286
    axis 171.683 16.6445 96.0359 xyz
    dof rx ry rz
  end
:hierarchy
  begin
    root SpineDummy L_ThighDummy R_ThighDummy
    SpineDummy Spine
    Spine Spine1
    Spine1 Neck
    Neck HeadDummy R_ClavicleDummy L_ClavicleDummy
    HeadDummy Head
    R_ClavicleDummy R_Clavicle
    R_Clavicle R_UpperArm
    R_UpperArm R_Forearm
    R_Forearm R_Hand
    L_ClavicleDummy L_Clavicle
    L_Clavicle L_UpperArm
    L_UpperArm L_Forearm
    L_Forearm L_Hand
    L_ThighDummy L_Thigh
    L_Thigh L_Calf
    L_Calf L_Foot
    L_Foot L_Toe0
    R_ThighDummy R_Thigh
    R_Thigh R_Calf
    R_Calf R_Foot
    R_Foot R_Toe0
  end

:SAMPLES-PER-SECOND 30
:FULLY-SPECIFIED
:DEGREES
365
root  -17.4245 37.4208 -14.8127 -1.01105 -30.5313 -116.488
Spine  -14.0081 -12.4131 20.6435
Spine1  -17.5088 16.2706 -38.5442
Neck  3.97569e-016 0 -2.38542e-015
Head  -13.5559 5.74754 19.6483
R_Clavicle  1.72172 19.5812 5.58743
R_UpperArm  90.8498 50.6531 17.2624
R_Forearm  51.8395 6.9748 9.2576
R_Hand  -29.8071 16.2679 -124.331
L_Clavicle  1.28281 -3.19694 -7.09214
L_UpperArm  -36.969 -32.6026 -20.9508
L_Forearm  -16.2179 28.3597 45.7291
L_Hand  -0.103895 -4.78317 -16.1014
L_Thigh  -1.15374 47.9507 38.899
L_Calf  -19.3215 -8.79916 53.4111
L_Foot  3.99002 12.9562 2.62862
L_Toe0  0.505263 0.0366069 -6.13595
R_Thigh  -9.50197 -50.1962 42.3136
R_Calf  5.43901 8.14566 26.161
R_Foot  0.510783 3.91707 7.86221
R_Toe0  -1.78853 -0.272788 -17.3235
366
root  -17.0112 37.9461 -13.4794 -22.0535 -30.5698 -106.944
Spine  -12.3069 -10.2941 19.9143
Spine1  -16.3854 12.8775 -43.797
Neck  3.97569e-016 0 -2.38542e-015
Head  -7.65459 6.2471 18.7517
R_Clavicle  4.36377 28.9655 11.265
R_UpperArm  91.4563 45.1393 5.77184
R_Forearm  55.636 12.6481 6.7609
R_Hand  -31.9501 17.5347 -125.386
L_Clavicle  1.07912 -7.2161 -4.36677
L_UpperArm  -29.1799 -43.4155 -28.6455
L_Forearm  -26.471 28.8171 52.3644
L_Hand  -0.197262 -2.24924 -15.6374
L_Thigh  -4.78274 47.0567 30.4433
L_Calf  -17.1598 -8.052 53.0383
L_Foot  4.1441 12.6275 3.38875
L_Toe0  0.505265 0.0366432 -6.13595
R_Thigh  -11.4865 -53.8098 43.4437
R_Calf  5.66303 7.06892 22.4292
R_Foot  0.393985 3.66376 8.14255
R_Toe0  -1.78853 -0.272788 -17.3235
367
root  -15.8348 38.2968 -12.5587 -43.1691 -29.6149 -99.3398
Spine  -8.93348 -6.57746 18.8409
Spine1  -13.077 8.28295 -47.5658
Neck  3.97569e-016 0 -2.38542e-015
Head  -2.55363 6.06447 18.9119
R_Clavicle  7.8137 37.201 16.8818
R_UpperArm  89.9967 40.0636 -1.0378
R_Forearm  67.1705 16.6904 4.85694
R_Hand  -31.0073 15.3482 -129.525
L_Clavicle  0.591337 -13.0708 -1.01373
L_UpperArm  -24.9636 -51.7717 -30.2881
L_Forearm  -44.1612 25.1992 45.1244
L_Hand  0.279443 -11.3784 -20.1868
L_Thigh  -8.68057 45.5139 21.6458
L_Calf  -12.8452 -6.7312 50.8114
L_Foot  3.98527 12.9669 2.60708
L_Toe0  0.505267 0.0366788 -6.13595
R_Thigh  -12.5306 -56.7239 41.0753
R_Calf  5.76708 5.4648 17.0788
R_Foot  0.319058 3.54997 8.52984
R_Toe0  -1.78853 -0.272788 -17.3235
368
root  -14.2235 38.5613 -12.2037 -65.9974 -28.3407 -92.3522
Spine  -3.80172 -0.89041 16.3213
Spine1  -7.24747 2.26321 -48.0443
Neck  3.97569e-016 0 -2.38542e-015
Head  1.15613 5.4397 19.8633
R_Clavicle  10.4033 41.5216 20.6774
R_UpperArm  81.5289 37.0436 0.912666
R_Forearm  102.275 17.4116 4.95044
R_Hand  -15.8033 2.63971 -136.086
L_Clavicle  -1.17424 -19.5846 5.5657
L_UpperArm  -36.193 -50.1124 -15.1358
L_Forearm  -74.8209 2.83563 13.3184
L_Hand  24.759 -43.4838 -66.7837
L_Thigh  -11.1595 44.0242 13.853
L_Calf  -9.67846 -5.41702 45.5941
L_Foot  3.82861 13.5513 1.64246
L_Toe0  0.505268 0.0367138 -6.13595
R_Thigh  -12.4218 -57.5868 35.5954
R_Calf  6.1246 3.89366 12.0151
R_Foot  0.554261 4.16933 8.47486
R_Toe0  -1.78853 -0.272788 -17.3235
369
root  -12.4222 38.7164 -12.3717 -91.1397 -25.6025 -86.0769
Spine  1.92244 7.67848 12.1298
Spine1  0.170305 -6.68322 -45.3449
Neck  3.97569e-016 0 -2.38542e-015
Head  3.37408 4.41436 22.2152
R_Clavicle  10.2252 43.8087 19.7331
R_UpperArm  73.0369 37.3707 2.81443
R_Forearm  144.908 15.7546 4.70984
R_Hand  5.27456 -9.94219 -136.717
L_Clavicle  -4.03638 -23.4535 13.8111
L_UpperArm  -30.1054 -54.3515 -23.2408
L_Forearm  -85.2363 -1.58365 10.7315
L_Hand  31.4741 -28.9133 -102.744
L_Thigh  -11.6383 41.9501 6.62999
L_Calf  -9.6454 -4.87714 38.4828
L_Foot  4.09202 13.922 2.1632
L_Toe0  0.50527 0.0367479 -6.13594
R_Thigh  -13.9762 -56.4537 30.9971
R_Calf  6.20821 2.52497 7.70925
R_Foot  1.11404 5.60818 8.186
R_Toe0  -1.78853 -0.272788 -17.3235
370
root  -10.8172 38.8238 -13.0499 -117.893 -21.1316 -82.2841
Spine  7.24137 18.735 8.75206
Spine1  8.26475 -19.2433 -43.411
Neck  3.97569e-016 0 -2.38542e-015
Head  3.47535 2.88304 26.6272
R_Clavicle  8.32926 43.4896 16.4347
R_UpperArm  68.6355 40.3629 1.21101
R_Forearm  145.282 11.1327 5.46964
R_Hand  -18.2694 -1.87606 -112.403
L_Clavicle  -6.1721 -22.8798 20.2819
L_UpperArm  -22.4523 -59.7816 -32.5027
L_Forearm  -62.2887 3.2779 18.1931
L_Hand  39.8946 -33.0039 -110.547
L_Thigh  -12.5647 38.8612 0.703571
L_Calf  -8.9081 -4.13254 30.9749
L_Foot  4.48539 14.2626 3.09111
L_Toe0  0.505271 0.0367815 -6.13594
R_Thigh  -19.166 -54.6256 31.3133
R_Calf  5.93629 1.03122 3.06913
R_Foot  1.50372 6.732 8.71571
R_Toe0  -1.78853 -0.272788 -17.3235
371
root  -9.80933 38.9657 -14.0099 -145.502 -16.7769 -81.1279
Spine  11.9417 27.6432 8.65497
Spine1  15.8719 -30.074 -45.1334
Neck  3.97569e-016 0 -2.38542e-015
Head  1.36186 0.961251 32.6219
R_Clavicle  4.43829 36.4613 10.2214
R_UpperArm  60.6015 50.8526 -4.29917
R_Forearm  86.0465 -14.2843 20.1584
R_Hand  -10.2843 66.0074 -42.6233
L_Clavicle  -6.75477 -19.0907 23.9169
L_UpperArm  -25.4121 -67.04 -23.9997
L_Forearm  -43.1327 5.53637 18.8571
L_Hand  39.8015 -38.8551 -98.5763
L_Thigh  -12.8745 36.2759 -3.51336
L_Calf  -8.0548 -3.13787 22.8815
L_Foot  4.81296 14.9157 3.54783
L_Toe0  0.505273 0.0368143 -6.13594
R_Thigh  -25.4396 -53.4093 35.3992
R_Calf  5.77772 -0.682375 -2.23064
R_Foot  1.41019 6.65696 9.88964
R_Toe0  -1.78853 -0.272788 -17.3235
